<svg width="120" height="111" viewBox="0 0 120 111" fill="none" xmlns="http://www.w3.org/2000/svg">
<path d="M60.2157 63.9623C61.9802 63.9623 63.4141 65.3962 63.4141 67.1606C63.462 69.9644 67.6304 69.9644 67.6784 67.1606C67.6784 63.7917 65.4184 60.9719 62.348 60.0445V58.6319C62.348 57.4539 61.3939 56.4998 60.2159 56.4998C59.0379 56.4998 58.0837 57.4539 58.0837 58.6319V60.0445C55.0134 60.9667 52.7534 63.7918 52.7534 67.1606C52.828 71.8354 56.8365 73.1147 59.9174 74.7192C62.5879 76.0304 63.4142 76.6274 63.4142 77.8214C63.4142 79.5858 61.9803 81.0197 60.2159 81.0197C58.4515 81.0197 57.0176 79.5858 57.0176 77.8214C56.9696 75.0176 52.8013 75.0176 52.7532 77.8214C52.7532 81.1903 55.0133 84.0101 58.0836 84.9375V86.3501C58.0836 87.5281 59.0377 88.4822 60.2157 88.4822C61.3938 88.4822 62.3479 87.5281 62.3479 86.3501V84.9375C65.4182 84.0153 67.6783 81.1902 67.6783 77.8214C67.6783 73.7863 64.4161 72.1819 61.7935 70.8919C59.7839 69.9271 56.6922 68.5519 57.0174 67.1606C57.0174 65.3962 58.4513 63.9623 60.2157 63.9623Z" fill="#353535"/>
<path d="M111.388 55.4337C112.566 55.4337 113.52 54.4796 113.52 53.3015V46.905H117.784C118.962 46.905 119.916 45.9509 119.916 44.7729V36.2442C119.911 35.4926 119.485 34.8209 118.872 34.4105L61.3025 0.295835C60.6309 -0.0986118 59.7993 -0.0986118 59.1276 0.295835L1.55849 34.4105C0.950823 34.8263 0.513733 35.4872 0.513733 36.2442V44.7729C0.513733 45.9509 1.46788 46.905 2.6459 46.905H6.91023V53.3015C6.91023 54.4796 7.86437 55.4337 9.04239 55.4337H11.1746V89.5483H9.04239C7.86437 89.5483 6.91023 90.5025 6.91023 91.6805V98.077H2.6459C1.46788 98.077 0.513733 99.0312 0.513733 100.209V108.738C0.513733 109.916 1.46788 110.87 2.6459 110.87H117.783C118.961 110.87 119.915 109.916 119.915 108.738V100.209C119.915 99.0312 118.961 98.077 117.783 98.077H113.519V91.6805C113.519 90.5025 112.564 89.5483 111.386 89.5483H109.254V55.4337H111.388ZM109.256 51.1694H92.1983V46.905H109.256V51.1694ZM90.0668 89.5483C88.8888 89.5483 87.9346 90.5025 87.9346 91.6805V98.077H32.4983V91.6805C32.4983 90.5025 31.5442 89.5483 30.3661 89.5483H28.234V55.4337H30.3661C31.5442 55.4337 32.4983 54.4796 32.4983 53.3015V46.905H87.9346V53.3015C87.9346 54.4796 88.8888 55.4337 90.0668 55.4337H92.199V89.5483H90.0668ZM60.2165 4.60834L110.002 34.112H10.4296L60.2165 4.60834ZM4.78016 38.3764H115.653V42.6407H4.78016V38.3764ZM13.3088 46.905H28.2347V51.1694H11.1773V46.905H13.3088ZM15.441 55.4337H23.9697V89.5483H15.441V55.4337ZM11.1767 93.8127H28.234V98.077H11.1767V93.8127ZM115.652 106.606H4.77948V102.341H115.652V106.606ZM107.123 98.077H92.1976V93.8127H109.255V98.077H107.123ZM104.991 89.5483H96.4626V55.4337H104.991V89.5483Z" fill="#353535"/>
<path d="M60.2159 13.8561C50.3546 14.1706 50.3546 28.4667 60.2159 28.7819C70.0772 28.4674 70.0772 14.1713 60.2159 13.8561ZM60.2159 24.5169C56.0102 24.4423 56.0155 18.1951 60.2159 18.1204C64.4162 18.195 64.4162 24.4423 60.2159 24.5169Z" fill="#353535"/>
</svg>
