<svg width="112" height="111" viewBox="0 0 112 111" fill="none" xmlns="http://www.w3.org/2000/svg">
<g clip-path="url(#clip0_134_29)">
<path d="M35.3781 107.405H76.9544M4.19595 69.2938H108.137M80.4191 38.1116L76.8435 24.0681C76.5969 23.1235 76.0423 22.288 75.2676 21.694C74.4928 21.0999 73.5421 20.7812 72.5658 20.7882H62.7815C62.7815 22.5427 62.0846 24.2253 60.844 25.4659C59.6034 26.7065 57.9207 27.4034 56.1663 27.4034C54.4118 27.4034 52.7292 26.7065 51.4886 25.4659C50.248 24.2253 49.551 22.5427 49.551 20.7882H39.7667C38.7905 20.7812 37.8397 21.0999 37.065 21.694C36.2902 22.288 35.7356 23.1235 35.489 24.0681L31.9135 38.1116H42.3075V55.4351H70.025V38.1116H80.4191Z" stroke="#353535" stroke-width="6.36021" stroke-linecap="round" stroke-linejoin="round"/>
<path d="M56.1663 107.405V86.6172M11.1253 3.46472H101.207C101.207 3.46472 108.137 3.46472 108.137 10.3941V79.6879C108.137 79.6879 108.137 86.6172 101.207 86.6172H11.1253C11.1253 86.6172 4.19595 86.6172 4.19595 79.6879V10.3941C4.19595 10.3941 4.19595 3.46472 11.1253 3.46472Z" stroke="#353535" stroke-width="6.36021" stroke-linecap="round" stroke-linejoin="round"/>
</g>
<defs>
<clipPath id="clip0_134_29">
<rect width="110.87" height="110.87" fill="white" transform="translate(0.731262)"/>
</clipPath>
</defs>
</svg>
