<svg width="129" height="111" viewBox="0 0 129 111" fill="none" xmlns="http://www.w3.org/2000/svg">
<path fill-rule="evenodd" clip-rule="evenodd" d="M65.7009 80.4078V91.176C78.9532 81.12 94.6836 75.5354 111.263 74.7217L105.601 67.6287C97.6162 66.8685 89.464 67.8442 82.3646 70.1486C75.3554 72.4232 69.4001 75.9784 65.7009 80.4078ZM118.171 21.3285C118.836 21.526 119.285 22.1306 119.291 22.8249V42.0036C122.122 42.71 124.187 45.2778 124.187 48.2646V59.0748C124.187 59.9368 123.487 60.637 122.625 60.637H112.832C111.97 60.637 111.276 59.9367 111.276 59.0748V48.2706C111.276 45.2838 113.341 42.7159 116.172 42.0096V25.1125L96.1444 33.0615V56.7224C96.1444 57.5304 95.5279 58.2128 94.7079 58.2726C89.237 58.7216 83.6524 59.8109 78.3793 61.6067C73.5668 63.2468 69.0176 65.4734 65.0731 68.3346C64.5403 68.7356 63.7921 68.7655 63.2235 68.3525C59.279 65.4854 54.7178 63.2528 49.8934 61.6127C44.6439 59.8229 39.0713 58.7336 33.6185 58.2846C32.7864 58.2487 32.128 57.5663 32.128 56.7284L32.134 33.0675L9.97485 24.2685C8.66398 23.7478 8.67595 21.8982 9.97485 21.3835L63.5714 0.109999C63.9545 -0.0396445 64.3615 -0.0336577 64.7147 0.109999L118.171 21.3285ZM109.594 24.3812H64.1384C63.2764 24.3812 62.5821 23.6809 62.5821 22.819C62.5821 21.9571 63.2825 21.2627 64.1384 21.2627H109.594L64.1384 3.22252L14.7557 22.8257L64.1384 42.4289L109.594 24.3812ZM120.087 45.9121C117.962 43.7872 114.394 45.3435 114.394 48.2705V57.5245H121.068V48.2705C121.068 47.3547 120.691 46.5167 120.087 45.9121ZM93.0256 34.3059L64.7125 45.5469C64.3295 45.6966 63.9224 45.6846 63.5693 45.5469L35.2563 34.3059V55.3096C45.2943 56.3272 55.8111 59.4576 64.1439 65.192C72.476 59.4576 82.9932 56.3271 93.0316 55.3096L93.0256 34.3059ZM54.5562 89.4348C42.3214 81.8748 28.3088 77.9124 13.8481 77.7328C12.5492 77.7148 11.8548 76.2124 12.651 75.2128L20.6599 65.1868C20.9352 64.8396 21.3363 64.6421 21.7493 64.6061C30.3627 63.6903 39.198 64.7079 46.8766 67.1979C53.9397 69.4905 60.0512 73.034 64.1506 77.4753C68.2509 73.034 74.3623 69.4905 81.4247 67.1979C89.0983 64.7079 97.9387 63.6903 106.552 64.6061C106.965 64.6421 107.36 64.8396 107.641 65.1868L115.65 75.2128C116.446 76.2125 115.752 77.7148 114.453 77.7328C99.9917 77.9123 85.9731 81.8748 73.745 89.4348C87.602 82.4974 100.645 79.7738 117.034 80.1868C117.89 80.2048 118.572 80.9171 118.548 81.7791C118.53 82.635 117.818 83.3174 116.956 83.2934C100.926 82.8864 88.3255 85.5501 74.798 92.3857C90.5459 86.4838 102.65 84.4966 120.649 87.274C121.499 87.4057 122.085 88.2018 121.954 89.0518C121.822 89.9018 121.026 90.4884 120.176 90.3567C104.039 87.8667 92.779 89.3032 78.8087 94.2415C95.2752 90.6681 106.648 91.7992 123.294 94.463C124.144 94.5946 124.719 95.3907 124.587 96.2408C124.455 97.0907 123.659 97.6654 122.809 97.5337C106.654 94.9479 95.7005 93.8165 79.8086 97.2164L124.156 101.909C126.562 102.167 128.316 104.321 128.065 106.728C127.927 108.062 127.436 109.08 126.431 109.894C125.557 110.6 124.419 110.972 123.222 110.846L70.6017 105.273C67.0881 108.266 61.2341 108.266 57.7266 105.273L5.10608 110.846C2.69985 111.097 0.54492 109.343 0.28764 106.943C0.149969 105.614 0.407354 104.519 1.21542 103.519C1.92174 102.645 2.96321 102.041 4.17238 101.909L48.5198 97.2163C32.6279 93.8163 21.6732 94.9536 5.5193 97.5335C4.66933 97.6652 3.87327 97.0906 3.74149 96.2406C3.6098 95.3906 4.18442 94.5946 5.0344 94.4628C21.6802 91.7991 33.0532 90.6738 49.5197 94.2473C35.5491 89.309 24.2898 87.8786 8.1527 90.3625C7.30273 90.4942 6.50667 89.9076 6.37489 89.0576C6.2432 88.2077 6.82981 87.4116 7.67976 87.2798C25.6786 84.5025 37.7764 86.4897 53.5304 92.3916C40.0028 85.5559 27.3964 82.8923 11.3727 83.2993C10.5168 83.3172 9.8045 82.6408 9.78045 81.7849C9.76249 80.9289 10.4389 80.2167 11.2948 80.1926C27.6479 79.7736 40.6973 82.4971 54.5527 89.4345L54.5562 89.4348ZM62.5831 80.4084C58.8838 75.979 52.9281 72.4235 45.9189 70.1489C38.8199 67.8444 30.6674 66.8688 22.6825 67.629L17.0201 74.722C33.6 75.5361 49.3371 81.1208 62.5826 91.1763L62.5831 80.4084ZM55.6097 102.358C55.2865 101.49 55.1548 100.556 55.2386 99.6161L4.46148 104.991C2.77944 105.171 3.05484 107.918 4.76077 107.739L55.6097 102.358ZM73.04 99.6221C73.1238 100.562 72.9922 101.496 72.6689 102.364L123.518 107.745C125.224 107.924 125.505 105.177 123.817 104.997L73.04 99.6221ZM68.3891 97.3056C64.7259 94.4325 58.3331 96.4437 58.3331 100.173C58.3331 103.902 64.7259 105.907 68.3891 103.034C70.4662 101.406 70.4662 98.9397 68.3891 97.3056Z" fill="#353535"/>
</svg>
