<svg width="62" height="51" viewBox="0 0 62 51" fill="none" xmlns="http://www.w3.org/2000/svg">
<g filter="url(#filter0_d_333_130)">
<circle cx="31" cy="27.8799" r="17" fill="#FAFAFA"/>
</g>
<g clip-path="url(#clip0_333_130)">
<path d="M34.481 20.8799H28.519C26.5786 20.8799 25 22.4585 25 24.3989V30.361C25 32.3013 26.5786 33.8799 28.519 33.8799H34.4811C36.4214 33.8799 38 32.3013 38 30.361V24.3989C38 22.4585 36.4214 20.8799 34.481 20.8799V20.8799ZM37.2379 30.361C37.2379 31.881 36.0012 33.1177 34.481 33.1177H28.519C26.9988 33.1177 25.7621 31.881 25.7621 30.361V24.3989C25.7621 22.8787 26.9988 21.642 28.519 21.642H34.4811C36.0012 21.642 37.2379 22.8787 37.2379 24.3989V30.361Z" fill="#1A202C"/>
<path d="M31.5 23.8252C29.54 23.8252 27.9454 25.4197 27.9454 27.3798C27.9454 29.3398 29.54 30.9344 31.5 30.9344C33.46 30.9344 35.0546 29.3398 35.0546 27.3798C35.0546 25.4197 33.46 23.8252 31.5 23.8252ZM31.5 30.1722C29.9603 30.1722 28.7075 28.9196 28.7075 27.3798C28.7075 25.8401 29.9603 24.5873 31.5 24.5873C33.0398 24.5873 34.2925 25.8401 34.2925 27.3798C34.2925 28.9196 33.0398 30.1722 31.5 30.1722Z" fill="#1A202C"/>
<path d="M35.1396 22.563C34.5603 22.563 34.0892 23.0342 34.0892 23.6133C34.0892 24.1925 34.5603 24.6638 35.1396 24.6638C35.7188 24.6638 36.19 24.1925 36.19 23.6133C36.19 23.0341 35.7188 22.563 35.1396 22.563ZM35.1396 23.9015C34.9807 23.9015 34.8513 23.7722 34.8513 23.6133C34.8513 23.4543 34.9807 23.3251 35.1396 23.3251C35.2986 23.3251 35.4279 23.4543 35.4279 23.6133C35.4279 23.7722 35.2986 23.9015 35.1396 23.9015Z" fill="#1A202C"/>
</g>
<defs>
<filter id="filter0_d_333_130" x="0" y="0.879883" width="62" height="62" filterUnits="userSpaceOnUse" color-interpolation-filters="sRGB">
<feFlood flood-opacity="0" result="BackgroundImageFix"/>
<feColorMatrix in="SourceAlpha" type="matrix" values="0 0 0 0 0 0 0 0 0 0 0 0 0 0 0 0 0 0 127 0" result="hardAlpha"/>
<feOffset dy="4"/>
<feGaussianBlur stdDeviation="7"/>
<feColorMatrix type="matrix" values="0 0 0 0 0 0 0 0 0 0 0 0 0 0 0 0 0 0 0.15 0"/>
<feBlend mode="normal" in2="BackgroundImageFix" result="effect1_dropShadow_333_130"/>
<feBlend mode="normal" in="SourceGraphic" in2="effect1_dropShadow_333_130" result="shape"/>
</filter>
<clipPath id="clip0_333_130">
<rect width="13" height="13" fill="white" transform="translate(25 20.8799)"/>
</clipPath>
</defs>
</svg>
