<svg width="205" height="117" viewBox="0 0 205 117" fill="none" xmlns="http://www.w3.org/2000/svg">
<rect width="204.042" height="115.542" transform="translate(0.813721 0.499512)" fill="#E8F0FE"/>
<path d="M61.1006 76.2799C61.1006 76.2799 58.5686 77.7488 62.9026 78.2466C68.1536 78.8439 70.8369 78.7579 76.6225 77.6664C76.6225 77.6664 78.1443 78.6178 80.2683 79.4425C67.2969 84.9885 50.9121 79.123 61.1006 76.2811V76.2799ZM59.515 69.0413C59.515 69.0413 56.6879 71.1383 61.0121 71.5857C66.6208 72.1634 71.0507 72.2101 78.7146 70.7253C78.7146 70.7253 79.7754 71.7971 81.4433 72.3847C65.7592 76.9596 48.2927 72.7461 59.515 69.0291" fill="#5382A1"/>
<path d="M72.8797 56.7646C76.0756 60.4361 72.0402 63.7401 72.0402 63.7401C72.0402 63.7401 80.1552 59.5609 76.4283 54.3247C72.9473 49.4449 70.2776 47.0185 84.7289 38.6565C84.7289 38.6565 62.0459 44.3082 72.8797 56.7646Z" fill="#E76F00"/>
<path d="M90.034 81.6341C90.034 81.6341 91.9072 83.1742 87.969 84.3665C80.4834 86.6282 56.8072 87.3128 50.2299 84.4563C47.8662 83.4299 52.2998 82.0053 53.6937 81.7066C55.1478 81.3919 55.9799 81.4509 55.9799 81.4509C53.3495 79.6035 38.9855 85.0794 48.6836 86.6479C75.1303 90.9254 96.894 84.7205 90.0328 81.6329L90.034 81.6341ZM62.3187 61.5421C62.3187 61.5421 50.2766 64.3963 58.0535 65.4324C61.3379 65.8713 67.8844 65.7717 73.9835 65.2604C78.9678 64.8424 83.9717 63.9488 83.9717 63.9488C83.9717 63.9488 82.214 64.6986 80.9431 65.5652C68.7129 68.7733 45.0883 67.2811 51.8905 63.9992C57.643 61.225 62.3187 61.5409 62.3187 61.5409V61.5421ZM83.9213 73.5892C96.3531 67.1434 90.6056 60.9497 86.5936 61.7843C85.6102 61.9883 85.1714 62.153 85.1714 62.153C85.1714 62.153 85.5365 61.5827 86.2334 61.3356C94.1701 58.5516 100.274 69.5465 83.6718 73.9014C83.6718 73.9014 83.8648 73.7293 83.9213 73.5769" fill="#5382A1"/>
<path d="M76.4271 25.1541C76.4271 25.1541 83.3104 32.0374 69.8978 42.5922C59.1401 51.0686 67.4444 55.9004 69.8929 61.4231C63.6143 55.7689 59.0061 50.7945 62.0975 46.1642C66.6331 39.3669 79.205 36.0703 76.4271 25.1553" fill="#E76F00"/>
<path d="M63.5405 91.0559C75.4733 91.8179 93.7965 90.633 94.2304 84.9998C94.2304 84.9998 93.3945 87.1348 84.3688 88.8311C74.1839 90.7436 61.623 90.5199 54.1718 89.2945C54.1718 89.2945 55.696 90.5531 63.5381 91.0559" fill="#5382A1"/>
<path d="M129.12 69.0403C127.993 70.0077 126.802 70.5522 125.734 70.5522C124.21 70.5522 123.386 69.6475 123.386 68.1946C123.386 66.6238 124.269 65.4757 127.811 65.4757H129.121V69.0403H129.12ZM132.23 72.5139V61.7612C132.23 59.014 130.647 57.2133 126.83 57.2133C124.602 57.2133 122.651 57.7578 121.066 58.4523L121.523 60.3575C122.772 59.9027 124.387 59.4811 125.975 59.4811C128.175 59.4811 129.119 60.3575 129.119 62.168V63.5275H128.021C122.679 63.5275 120.27 65.5802 120.27 68.6605C120.27 71.3192 121.858 72.8298 124.848 72.8298C126.769 72.8298 128.203 72.0431 129.546 70.8951L129.789 72.5274H132.229L132.23 72.5139ZM142.612 72.5139H138.732L134.061 57.4738H137.449L140.346 66.7147L140.99 69.4926C142.455 65.4733 143.493 61.3973 144.012 57.4714H147.306C146.421 62.4249 144.835 67.8603 142.608 72.5115L142.612 72.5139ZM157.494 69.0403C156.363 70.0077 155.171 70.5522 154.102 70.5522C152.578 70.5522 151.754 69.6475 151.754 68.1946C151.754 66.6238 152.639 65.4757 156.179 65.4757H157.492V69.0403H157.494ZM160.604 72.5139V61.7612C160.604 59.014 159.018 57.2133 155.206 57.2133C152.976 57.2133 151.024 57.7578 149.438 58.4523L149.896 60.3575C151.144 59.9027 152.764 59.4811 154.35 59.4811C156.547 59.4811 157.494 60.3575 157.494 62.168V63.5275H156.395C151.052 63.5275 148.644 65.5802 148.644 68.6605C148.644 71.3192 150.23 72.8298 153.22 72.8298C155.143 72.8298 156.576 72.0431 157.921 70.8951L158.167 72.5274H160.605L160.604 72.5139ZM116.861 75.0681C115.987 76.3514 114.542 77.363 112.975 77.937L111.439 76.1486C112.631 75.5426 113.656 74.5506 114.131 73.6534C114.542 72.8421 114.712 71.8096 114.712 69.2972V52.1245H118.018V69.06C118.018 72.4008 117.748 73.7517 116.863 75.0681H116.861Z" fill="#E76F00"/>
</svg>
