<svg width="205" height="117" viewBox="0 0 205 117" fill="none" xmlns="http://www.w3.org/2000/svg">
<rect width="204.042" height="115.542" transform="translate(0.482849 0.499512)" fill="#E8F0FE"/>
<path d="M103.081 93.7146C102.69 93.7146 102.325 93.6114 101.987 93.4319L98.5187 91.3952C97.9975 91.1125 98.2581 91.008 98.4142 90.9564C99.1185 90.7229 99.2501 90.6737 99.979 90.2607C100.058 90.2091 100.163 90.2361 100.24 90.2853L102.899 91.8586C103.004 91.9102 103.133 91.9102 103.212 91.8586L113.618 85.9021C113.722 85.8504 113.774 85.7472 113.774 85.6194V73.7309C113.774 73.6018 113.721 73.4973 113.618 73.4482L103.212 67.5174C103.107 67.4658 102.978 67.4658 102.899 67.5174L92.4933 73.4482C92.3889 73.4998 92.3372 73.6288 92.3372 73.7309V85.6194C92.3372 85.7226 92.3901 85.8529 92.4933 85.9021L95.3364 87.527C96.8753 88.3014 97.8402 87.398 97.8402 86.4945V74.7609C97.8402 74.606 97.9705 74.4512 98.1536 74.4512H99.4836C99.6397 74.4512 99.797 74.5802 99.797 74.7609V86.4945C99.797 88.5313 98.676 89.7186 96.7192 89.7186C96.1194 89.7186 95.6498 89.7186 94.3199 89.0733L91.5813 87.5246C90.9028 87.1374 90.4873 86.4159 90.4873 85.6415V73.753C90.4873 72.9786 90.9053 72.2571 91.5813 71.8699L101.987 65.9134C102.639 65.552 103.526 65.552 104.179 65.9134L114.585 71.8699C115.264 72.2571 115.679 72.9786 115.679 73.753V85.6415C115.679 86.4159 115.261 87.1374 114.585 87.5246L104.179 93.4811C103.834 93.6344 103.461 93.7136 103.084 93.7134L103.081 93.7146ZM106.277 85.5407C101.713 85.5407 100.774 83.4782 100.774 81.7241C100.774 81.5693 100.905 81.4144 101.088 81.4144H102.443C102.6 81.4144 102.73 81.5176 102.73 81.6602C102.939 83.027 103.539 83.6969 106.303 83.6969C108.493 83.6969 109.432 83.2053 109.432 82.0462C109.432 81.3763 109.172 80.8858 105.755 80.5503C102.912 80.2676 101.138 79.6481 101.138 77.4036C101.138 75.314 102.912 74.0763 105.885 74.0763C109.224 74.0763 110.867 75.2108 111.076 77.6863C111.076 77.7638 111.051 77.8412 110.997 77.9199C110.944 77.9715 110.867 78.0231 110.788 78.0231H109.432C109.302 78.0231 109.172 77.9199 109.146 77.7896C108.833 76.3711 108.025 75.9065 105.886 75.9065C103.487 75.9065 103.199 76.73 103.199 77.3508C103.199 78.0981 103.539 78.3304 106.773 78.7434C109.968 79.1564 111.493 79.7489 111.493 81.9675C111.468 84.2365 109.587 85.5259 106.276 85.5259L106.277 85.5407Z" fill="#539E43"/>
<path d="M70.7912 47.2176C70.7912 46.753 70.5306 46.3154 70.1127 46.0831L59.0539 39.7898C58.8695 39.6865 58.663 39.6349 58.454 39.6091H58.3496C58.1406 39.6091 57.9316 39.6865 57.7497 39.7898L46.6909 46.0831C46.273 46.3167 46.0124 46.753 46.0124 47.2176L46.037 64.1347C46.0364 64.2513 46.0677 64.3658 46.1275 64.4659C46.1873 64.566 46.2733 64.6478 46.3763 64.7025C46.5852 64.8316 46.8458 64.8316 47.0277 64.7025L53.6001 60.9905C54.018 60.7569 54.2786 60.3206 54.2786 59.8559V51.9401C54.2786 51.4755 54.5391 51.0379 54.9571 50.8056L57.7473 49.2077C57.9562 49.0786 58.1898 49.027 58.4258 49.027C58.6567 49.0191 58.8845 49.0822 59.0785 49.2077L61.8687 50.8056C62.2866 51.0391 62.5472 51.4755 62.5472 51.9401V59.8559C62.5472 60.3206 62.8077 60.7581 63.2257 60.9905L69.798 64.7025C70.007 64.8316 70.2676 64.8316 70.4765 64.7025C70.5795 64.6478 70.6655 64.566 70.7253 64.4659C70.7851 64.3658 70.8164 64.2513 70.8158 64.1347L70.7912 47.2176ZM123.946 23.9311C123.845 23.8801 123.733 23.8535 123.62 23.8535C123.507 23.8535 123.395 23.8801 123.294 23.9311C123.085 24.0602 122.955 24.2667 122.955 24.4965V41.2586C122.955 41.4135 122.876 41.5684 122.721 41.6716C122.649 41.7098 122.568 41.7297 122.486 41.7297C122.404 41.7297 122.324 41.7098 122.251 41.6716L119.486 40.0983C119.074 39.8648 118.568 39.8648 118.156 40.0983L107.097 46.4162C106.679 46.6498 106.419 47.0861 106.419 47.5507V60.162C106.419 60.6266 106.679 61.0642 107.097 61.2965L118.156 67.6144C118.568 67.848 119.074 67.848 119.486 67.6144L130.545 61.2965C130.963 61.063 131.223 60.6266 131.223 60.162V28.7273C131.223 28.2356 130.963 27.7993 130.545 27.567L123.946 23.9311ZM122.93 56.0123C122.93 56.1414 122.878 56.2459 122.774 56.295L118.992 58.4608C118.885 58.5125 118.758 58.5125 118.652 58.4608L114.87 56.295C114.766 56.2434 114.714 56.1143 114.714 56.0123V51.6795C114.714 51.5505 114.766 51.446 114.87 51.3968L118.652 49.231C118.759 49.1794 118.886 49.1794 118.992 49.231L122.774 51.3968C122.878 51.4484 122.93 51.5775 122.93 51.6795V56.0123ZM160.748 51.575C161.166 51.3415 161.399 50.9051 161.399 50.4405V47.3713C161.396 47.1422 161.335 46.9175 161.221 46.7189C161.107 46.5203 160.943 46.3543 160.746 46.2368L149.766 39.9434C149.355 39.7099 148.848 39.7099 148.436 39.9434L137.378 46.2614C136.96 46.4949 136.699 46.9312 136.699 47.3959V60.0071C136.699 60.4717 136.96 60.9093 137.378 61.1416L148.358 67.3305C148.776 67.564 149.271 67.564 149.661 67.3305L156.31 63.6676C156.413 63.6129 156.499 63.531 156.559 63.4309C156.619 63.3308 156.65 63.2163 156.65 63.0997C156.65 62.9831 156.619 62.8686 156.559 62.7685C156.499 62.6684 156.413 62.5865 156.31 62.5318L145.199 56.2139C144.99 56.0848 144.86 55.8783 144.86 55.6485V51.7152C144.859 51.5986 144.89 51.484 144.95 51.3839C145.01 51.2838 145.096 51.202 145.199 51.1473L148.667 49.1868C148.876 49.0577 149.138 49.0577 149.346 49.1868L152.815 51.1473C153.024 51.2764 153.154 51.4829 153.154 51.7152V54.8102C153.154 54.9266 153.185 55.0409 153.245 55.1407C153.304 55.2406 153.39 55.3222 153.493 55.3768C153.702 55.5059 153.963 55.5059 154.172 55.3768L160.744 51.5861L160.748 51.575Z" fill="#333333"/>
<path d="M148.933 50.9813C149.012 50.9297 149.115 50.9297 149.194 50.9813L151.308 52.1933C151.386 52.2449 151.438 52.3224 151.438 52.4268V54.8508C151.438 54.8974 151.426 54.9434 151.403 54.9841C151.381 55.0248 151.348 55.0589 151.308 55.0831L149.194 56.295C149.115 56.3467 149.012 56.3467 148.933 56.295L146.819 55.0831C146.779 55.0589 146.746 55.0248 146.723 54.9841C146.7 54.9434 146.688 54.8974 146.689 54.8508V52.4268C146.689 52.3236 146.74 52.2462 146.819 52.1933L148.933 50.9813Z" fill="#539E43"/>
<path d="M89.2828 39.9964C88.871 39.7629 88.3646 39.7629 87.9528 39.9964L76.9727 46.2627C76.5547 46.4963 76.3212 46.9326 76.3212 47.3973V59.9569C76.3239 60.186 76.3853 60.4106 76.4996 60.6093C76.6138 60.8079 76.7772 60.9739 76.9739 61.0914L87.954 67.3577C88.3658 67.5912 88.8722 67.5912 89.284 67.3577L100.264 61.0914C100.682 60.8579 100.916 60.4215 100.916 59.9569V47.3973C100.913 47.1681 100.851 46.9435 100.737 46.7449C100.623 46.5462 100.46 46.3802 100.263 46.2627L89.2828 39.9964Z" fill="url(#paint0_linear_141_56)"/>
<mask id="mask0_141_56" style="mask-type:alpha" maskUnits="userSpaceOnUse" x="76" y="39" width="25" height="29">
<path d="M89.2828 39.9964C88.871 39.7629 88.3646 39.7629 87.9528 39.9964L76.9727 46.2627C76.5547 46.4963 76.3212 46.9326 76.3212 47.3973V59.9569C76.3239 60.186 76.3853 60.4106 76.4996 60.6093C76.6138 60.8079 76.7772 60.9739 76.9739 61.0914L87.954 67.3577C88.3658 67.5912 88.8722 67.5912 89.284 67.3577L100.264 61.0914C100.682 60.8579 100.916 60.4215 100.916 59.9569V47.3973C100.913 47.1681 100.851 46.9435 100.737 46.7449C100.623 46.5462 100.46 46.3802 100.263 46.2627L89.2828 39.9964Z" fill="white"/>
</mask>
<g mask="url(#mask0_141_56)">
<path d="M100.29 46.2628L89.2459 39.9965C89.1476 39.9301 89.037 39.8994 88.919 39.8687L76.556 60.8075C76.658 60.9304 76.7822 61.0361 76.9211 61.1172L87.9541 67.3835C88.2675 67.5642 88.6326 67.6171 88.9706 67.5126L100.579 46.5209C100.496 46.4216 100.399 46.3347 100.291 46.2628H100.29Z" fill="url(#paint1_linear_141_56)"/>
</g>
<mask id="mask1_141_56" style="mask-type:alpha" maskUnits="userSpaceOnUse" x="76" y="39" width="25" height="29">
<path d="M89.2828 39.9964C88.871 39.7629 88.3646 39.7629 87.9528 39.9964L76.9727 46.2627C76.5547 46.4963 76.3212 46.9326 76.3212 47.3973V59.9569C76.3239 60.186 76.3853 60.4106 76.4996 60.6093C76.6138 60.8079 76.7772 60.9739 76.9739 61.0914L87.954 67.3577C88.3658 67.5912 88.8722 67.5912 89.284 67.3577L100.264 61.0914C100.682 60.8579 100.916 60.4215 100.916 59.9569V47.3973C100.913 47.1681 100.851 46.9435 100.737 46.7449C100.623 46.5462 100.46 46.3802 100.263 46.2627L89.2828 39.9964Z" fill="white"/>
</mask>
<g mask="url(#mask1_141_56)">
<path fill-rule="evenodd" clip-rule="evenodd" d="M100.316 61.0914C100.629 60.9107 100.864 60.5998 100.967 60.2679L88.8648 39.8441C88.5514 39.7924 88.2134 39.8195 87.9257 39.9989L76.9726 46.2382L88.7874 67.5396C88.959 67.5118 89.1258 67.4596 89.2827 67.3848L100.316 61.0914Z" fill="url(#paint2_linear_141_56)"/>
<path d="M100.316 61.0913L89.3098 67.3576C89.1543 67.4361 88.9869 67.4884 88.8144 67.5125L89.0234 67.8997L101.229 60.9118V60.757L100.916 60.2407C100.864 60.6021 100.629 60.9106 100.316 61.0913Z" fill="url(#paint3_linear_141_56)"/>
<path d="M100.316 61.0913L89.3098 67.3576C89.1543 67.4361 88.9869 67.4884 88.8144 67.5125L89.0234 67.8997L101.229 60.9118V60.757L100.916 60.2407C100.864 60.6021 100.629 60.9106 100.316 61.0913Z" fill="url(#paint4_linear_141_56)"/>
</g>
<defs>
<linearGradient id="paint0_linear_141_56" x1="92.1427" y1="44.6672" x2="82.6288" y2="63.8547" gradientUnits="userSpaceOnUse">
<stop stop-color="#41873F"/>
<stop offset="0.3288" stop-color="#418B3D"/>
<stop offset="0.6352" stop-color="#419637"/>
<stop offset="0.9319" stop-color="#3FA92D"/>
<stop offset="1" stop-color="#3FAE2A"/>
</linearGradient>
<linearGradient id="paint1_linear_141_56" x1="87.3526" y1="55.1489" x2="110.708" y2="38.0852" gradientUnits="userSpaceOnUse">
<stop offset="0.1376" stop-color="#41873F"/>
<stop offset="0.4032" stop-color="#54A044"/>
<stop offset="0.7136" stop-color="#66B848"/>
<stop offset="0.9081" stop-color="#6CC04A"/>
</linearGradient>
<linearGradient id="paint2_linear_141_56" x1="75.9195" y1="53.6794" x2="101.327" y2="53.6794" gradientUnits="userSpaceOnUse">
<stop offset="0.09192" stop-color="#6CC04A"/>
<stop offset="0.2864" stop-color="#66B848"/>
<stop offset="0.5968" stop-color="#54A044"/>
<stop offset="0.8624" stop-color="#41873F"/>
</linearGradient>
<linearGradient id="paint3_linear_141_56" x1="75.9205" y1="64.0913" x2="101.328" y2="64.0913" gradientUnits="userSpaceOnUse">
<stop offset="0.09192" stop-color="#6CC04A"/>
<stop offset="0.2864" stop-color="#66B848"/>
<stop offset="0.5968" stop-color="#54A044"/>
<stop offset="0.8624" stop-color="#41873F"/>
</linearGradient>
<linearGradient id="paint4_linear_141_56" x1="105.029" y1="56.46" x2="97.1506" y2="72.352" gradientUnits="userSpaceOnUse">
<stop stop-color="#41873F"/>
<stop offset="0.3288" stop-color="#418B3D"/>
<stop offset="0.6352" stop-color="#419637"/>
<stop offset="0.9319" stop-color="#3FA92D"/>
<stop offset="1" stop-color="#3FAE2A"/>
</linearGradient>
</defs>
</svg>
