<svg width="205" height="117" viewBox="0 0 205 117" fill="none" xmlns="http://www.w3.org/2000/svg">
<mask id="mask0_141_76" style="mask-type:alpha" maskUnits="userSpaceOnUse" x="43" y="27" width="119" height="63">
<path d="M43.2836 58.2363C43.2836 75.2578 69.6492 89.0576 102.19 89.0576C134.731 89.0576 161.109 75.2578 161.109 58.235C161.109 41.2123 134.731 27.4125 102.19 27.4125C69.6492 27.4125 43.2836 41.2148 43.2836 58.2363Z" fill="white"/>
</mask>
<g mask="url(#mask0_141_76)">
<path d="M43.2836 58.2363C43.2836 75.2578 69.6492 89.0576 102.19 89.0576C134.731 89.0576 161.109 75.2578 161.109 58.235C161.109 41.2123 134.731 27.4125 102.19 27.4125C69.6492 27.4125 43.2836 41.2148 43.2836 58.2363Z" fill="url(#paint0_radial_141_76)"/>
</g>
<mask id="mask1_141_76" style="mask-type:alpha" maskUnits="userSpaceOnUse" x="40" y="23" width="124" height="70">
<path d="M40.8167 23.9044H163.561V92.5681H40.8167V23.9044Z" fill="white"/>
</mask>
<g mask="url(#mask1_141_76)">
<path d="M102.189 86.77C133.456 86.77 158.804 73.9953 158.804 58.2362C158.804 42.477 133.459 29.7023 102.189 29.7023C70.919 29.7023 45.5735 42.4795 45.5735 58.2374C45.5735 73.9953 70.9214 86.77 102.189 86.77Z" fill="#777BB3"/>
</g>
<mask id="mask2_141_76" style="mask-type:alpha" maskUnits="userSpaceOnUse" x="40" y="23" width="124" height="70">
<path d="M40.8167 23.9044H163.561V92.5681H40.8167V23.9044Z" fill="white"/>
</mask>
<g mask="url(#mask2_141_76)">
<path d="M75.2825 61.7737C77.8539 61.7737 79.7727 61.3017 80.9859 60.3725C82.1868 59.453 83.0177 57.8588 83.4516 55.6353C83.8572 53.558 83.7023 52.1075 82.9931 51.3233C82.2679 50.5244 80.697 50.1188 78.3272 50.1188H74.2181L71.9404 61.7749H75.2801L75.2825 61.7737ZM61.8441 76.1304C61.75 76.1305 61.657 76.1099 61.5718 76.0699C61.4866 76.03 61.4112 75.9717 61.3512 75.8993C61.2282 75.7518 61.1791 75.56 61.216 75.3732L67.2512 44.4843C67.2802 44.3391 67.3587 44.2086 67.4732 44.1149C67.5878 44.0212 67.7313 43.9702 67.8793 43.9705H80.89C84.9794 43.9705 88.0228 45.0743 89.9367 47.2523C91.8603 49.4403 92.454 52.5009 91.7017 56.3482C91.4142 57.8642 90.8859 59.3245 90.137 60.6736C89.4044 61.9765 88.4358 63.1848 87.2583 64.2628C85.8484 65.5755 84.253 66.5269 82.5199 67.0862C80.815 67.6393 78.6234 67.9183 76.0102 67.9183H70.742L69.2375 75.6154C69.2088 75.7605 69.1306 75.8912 69.0162 75.9851C68.9019 76.079 68.7586 76.1303 68.6106 76.1304H61.8441Z" fill="black"/>
<path d="M74.7478 50.7518H78.3296C81.1899 50.7518 82.183 51.3762 82.5088 51.7351C83.0693 52.3522 83.175 53.6551 82.8161 55.5001C82.4104 57.5651 81.6606 59.0315 80.5876 59.8538C79.4875 60.6957 77.699 61.1223 75.2727 61.1223H72.7086L74.7367 50.7383L74.7478 50.7518ZM80.8912 43.335H67.8805C67.5845 43.3347 67.2977 43.4371 67.0688 43.6247C66.8399 43.8124 66.6832 44.0736 66.6255 44.3638L60.5903 75.2528C60.5543 75.4368 60.5597 75.6266 60.606 75.8084C60.6524 75.9901 60.7385 76.1593 60.8582 76.3037C60.9785 76.4487 61.1294 76.5653 61.3 76.6452C61.4707 76.7251 61.6568 76.7663 61.8453 76.7659H68.6118C68.9078 76.7662 69.1946 76.6638 69.4235 76.4761C69.6523 76.2885 69.809 76.0273 69.8668 75.7371L71.2705 68.5538H76.0114C78.691 68.5538 80.9502 68.2625 82.7202 67.6897C84.5393 67.1022 86.2147 66.0918 87.6983 64.7274C88.9238 63.6064 89.9354 62.3465 90.6975 60.9858C91.4596 59.6251 92.0127 58.1047 92.3323 56.4711C93.1238 52.4222 92.4798 49.1821 90.4209 46.8344C88.3805 44.5113 85.1761 43.335 80.8949 43.335H80.8912ZM71.1685 62.408H75.2837C78.0125 62.408 80.0431 61.8966 81.3804 60.8752C82.7177 59.8538 83.6175 58.1465 84.0846 55.7557C84.532 53.4596 84.3279 51.8396 83.4724 50.8968C82.6169 49.9541 80.9035 49.4808 78.3321 49.4808H73.6981L71.1722 62.408H71.1685ZM80.8912 44.606C84.8048 44.606 87.6602 45.6262 89.4548 47.6703C91.2494 49.7144 91.7902 52.5648 91.0736 56.2253C90.7786 57.7335 90.2808 59.1138 89.5789 60.3614C88.8771 61.609 87.9589 62.7546 86.8256 63.8031C85.4735 65.0605 83.9739 65.9566 82.3219 66.49C80.6699 67.0235 78.5668 67.2915 76.0102 67.2915H70.2146L68.6081 75.4826H61.8416L67.8768 44.5937H80.8875L80.8912 44.606Z" fill="white"/>
<path d="M107.216 67.9197C107.122 67.9198 107.029 67.8992 106.944 67.8592C106.859 67.8193 106.783 67.761 106.723 67.6886C106.6 67.5411 106.551 67.3493 106.588 67.1625L109.259 53.4942C109.514 52.195 109.451 51.262 109.083 50.8675C108.858 50.6265 108.182 50.2221 106.183 50.2221H101.345L97.9889 67.4034C97.9601 67.5488 97.8817 67.6796 97.7672 67.7735C97.6526 67.8675 97.509 67.9187 97.3608 67.9184H90.6495C90.5554 67.9186 90.4625 67.8979 90.3773 67.858C90.2921 67.8181 90.2167 67.7598 90.1566 67.6874C90.0337 67.5399 89.9846 67.3481 90.0214 67.1613L96.0566 36.2723C96.0857 36.1272 96.1642 35.9967 96.2787 35.903C96.3933 35.8093 96.5368 35.7582 96.6847 35.7585H103.396C103.49 35.7584 103.583 35.779 103.668 35.819C103.753 35.8589 103.829 35.9172 103.889 35.9896C104.012 36.1371 104.061 36.3289 104.024 36.5157L102.568 43.9706H107.772C111.737 43.9706 114.425 44.6663 115.991 46.0971C117.589 47.5561 118.086 49.889 117.471 53.0296L114.663 67.4034C114.634 67.5488 114.555 67.6796 114.441 67.7735C114.326 67.8675 114.183 67.9187 114.034 67.9184H107.216V67.9197Z" fill="black"/>
<path d="M103.396 35.1243H96.6848C96.3888 35.124 96.1019 35.2264 95.8731 35.414C95.6442 35.6017 95.4875 35.8629 95.4298 36.1531L89.3946 67.0421C89.3586 67.2262 89.364 67.4159 89.4103 67.5977C89.4567 67.7794 89.5428 67.9486 89.6625 68.093C89.7828 68.238 89.9337 68.3546 90.1043 68.4345C90.2749 68.5144 90.4611 68.5556 90.6495 68.5552H97.3583C97.6543 68.5555 97.9411 68.4531 98.17 68.2654C98.3989 68.0778 98.5555 67.8166 98.6133 67.5264L101.871 50.8589H106.181C108.176 50.8589 108.595 51.2829 108.613 51.3014C108.733 51.4304 108.893 52.0303 108.63 53.3737L105.959 67.0421C105.923 67.2262 105.928 67.4159 105.975 67.5977C106.021 67.7794 106.107 67.9486 106.227 68.093C106.347 68.238 106.498 68.3546 106.669 68.4345C106.839 68.5144 107.025 68.5556 107.214 68.5552H114.033C114.329 68.5555 114.616 68.4531 114.845 68.2654C115.074 68.0778 115.23 67.8166 115.288 67.5264L118.097 53.1525C118.756 49.7784 118.191 47.2476 116.421 45.63C114.733 44.0874 111.902 43.3364 107.768 43.3364H103.344L104.653 36.6374C104.689 36.4533 104.684 36.2636 104.638 36.0818C104.591 35.9001 104.505 35.7309 104.385 35.5865C104.142 35.2939 103.781 35.1231 103.398 35.1231L103.396 35.1243ZM103.398 36.394L101.793 44.6049H107.773C111.534 44.6049 114.132 45.2563 115.56 46.5629C116.988 47.8695 117.404 49.9837 116.846 52.9079L114.034 67.2842H107.216L109.887 53.6159C110.191 52.061 110.079 51.0002 109.552 50.4348C109.024 49.8694 107.901 49.5744 106.184 49.5744H100.818L97.3583 67.2842H90.6471L96.6823 36.3953H103.394" fill="white"/>
<path d="M128.092 61.7739C130.664 61.7739 132.583 61.3019 133.796 60.3727C134.997 59.4533 135.828 57.859 136.263 55.6355C136.668 53.5582 136.513 52.1078 135.803 51.3236C135.078 50.5246 133.507 50.119 131.137 50.119H127.03L124.753 61.7752H128.092V61.7739ZM114.653 76.1318C114.559 76.132 114.466 76.1113 114.38 76.0714C114.295 76.0314 114.22 75.9732 114.16 75.9007C114.037 75.7532 113.988 75.5615 114.025 75.3747L120.06 44.4857C120.089 44.3406 120.167 44.2101 120.282 44.1164C120.396 44.0227 120.54 43.9716 120.688 43.9719H133.699C137.788 43.9719 140.832 45.0757 142.745 47.2538C144.669 49.4417 145.263 52.5023 144.51 56.3496C144.203 57.9168 143.678 59.3734 142.946 60.6763C142.213 61.9792 141.244 63.1875 140.067 64.2655C138.657 65.5782 137.062 66.5296 135.329 67.0889C133.624 67.642 131.432 67.921 128.819 67.921H123.552L122.049 75.618C122.02 75.7634 121.941 75.8942 121.827 75.9881C121.712 76.0821 121.569 76.1333 121.421 76.1331H114.653V76.1318Z" fill="black"/>
<path d="M127.559 50.7518H131.141C134.001 50.7518 134.994 51.3762 135.32 51.7351C135.88 52.3522 135.986 53.6551 135.627 55.5001C135.222 57.5651 134.472 59.0315 133.399 59.8538C132.299 60.6957 130.51 61.1223 128.084 61.1223H125.52L127.548 50.7383L127.559 50.7518ZM133.702 43.335H120.69C120.394 43.3347 120.108 43.4371 119.879 43.6247C119.65 43.8124 119.493 44.0736 119.435 44.3638L113.4 75.2528C113.364 75.4368 113.37 75.6266 113.416 75.8084C113.462 75.9901 113.548 76.1593 113.668 76.3037C113.788 76.4487 113.939 76.5653 114.11 76.6452C114.281 76.7251 114.467 76.7663 114.655 76.7659H121.422C121.718 76.7662 122.005 76.6638 122.233 76.4761C122.462 76.2885 122.619 76.0273 122.677 75.7371L124.08 68.5538H128.821C131.501 68.5538 133.76 68.2625 135.53 67.6897C137.349 67.1022 139.025 66.0918 140.508 64.7274C141.701 63.6477 142.714 62.3846 143.509 60.9858C144.274 59.6239 144.824 58.1047 145.143 56.4711C145.935 52.4222 145.291 49.1797 143.232 46.8344C141.192 44.5113 137.987 43.335 133.706 43.335H133.702ZM123.98 62.408H128.095C130.824 62.408 132.854 61.8966 134.192 60.8752C135.529 59.8538 136.429 58.1465 136.896 55.7557C137.343 53.4596 137.142 51.8396 136.284 50.8968C135.426 49.9541 133.715 49.4808 131.143 49.4808H126.509L123.983 62.408H123.98ZM133.702 44.606C137.616 44.606 140.471 45.6262 142.266 47.6703C144.061 49.7144 144.601 52.5648 143.885 56.2253C143.59 57.7335 143.092 59.1138 142.39 60.3614C141.688 61.609 140.77 62.7546 139.637 63.8031C138.285 65.0605 136.785 65.9566 135.133 66.49C133.481 67.0235 131.378 67.2915 128.821 67.2915H123.023L121.419 75.5023H114.653L120.688 44.6133H133.699L133.702 44.606Z" fill="white"/>
</g>
<defs>
<radialGradient id="paint0_radial_141_76" cx="0" cy="0" r="1" gradientUnits="userSpaceOnUse" gradientTransform="translate(61.905 38.2487) scale(77.3607 77.3689)">
<stop stop-color="#AEB2D5"/>
<stop offset="0.3" stop-color="#AEB2D5"/>
<stop offset="0.75" stop-color="#484C89"/>
<stop offset="1" stop-color="#484C89"/>
</radialGradient>
</defs>
</svg>
