<svg width="197" height="62" viewBox="0 0 197 62" fill="none" xmlns="http://www.w3.org/2000/svg">
<path d="M73.559 25.2141C73.559 19.4605 71.9183 16.5046 68.6352 16.3426C67.3296 16.281 66.0544 16.489 64.8143 16.9705C63.8245 17.3249 63.1582 17.6755 62.8077 18.0296V31.7656C64.9068 33.0831 66.7712 33.6952 68.3954 33.5992C71.8349 33.3719 73.5562 30.5793 73.5562 25.2137L73.559 25.2141ZM77.6055 25.4529C77.6055 28.3764 76.9199 30.8035 75.5412 32.7319C74.0044 34.916 71.8744 36.0406 69.1513 36.1023C67.0984 36.1677 64.9823 35.5245 62.8089 34.1762V46.6596L59.2883 45.4037V17.6946C59.8661 16.9861 60.6094 16.3771 61.5107 15.861C63.6059 14.6399 66.154 14.012 69.1493 13.9812L69.1994 14.0313C71.9379 13.9966 74.0481 15.1211 75.53 17.4016C76.9127 19.4933 77.6062 22.1753 77.6062 25.4512L77.6055 25.4529Z" fill="#646464"/>
<path d="M99.1263 33.6469C99.1263 37.5682 98.7334 40.2818 97.9475 41.7953C97.158 43.3052 95.6556 44.5109 93.4387 45.4083C91.6399 46.1168 89.6949 46.5021 87.606 46.5677L87.0243 44.3493C89.1468 44.0604 90.6413 43.7715 91.5095 43.4827C93.2158 42.9049 94.3867 42.019 95.03 40.8327C95.5461 39.8657 95.8002 38.0211 95.8002 35.2885V34.3717C93.3928 35.4655 90.8685 36.0089 88.2327 36.0089C86.4995 36.0089 84.9703 35.4659 83.6528 34.3717C82.1737 33.1814 81.4343 31.6715 81.4343 29.8431V15.1903L84.9548 13.9846V28.7323C84.9548 30.3078 85.4634 31.521 86.4802 32.3721C87.4969 33.2233 88.8144 33.6315 90.4283 33.6007C92.0422 33.566 93.7714 32.942 95.6089 31.7209V14.5153H99.1295V33.6454L99.1263 33.6469Z" fill="#646464"/>
<path d="M112.878 35.9112C112.458 35.9459 112.073 35.9613 111.719 35.9613C109.727 35.9613 108.175 35.4875 107.068 34.5363C105.962 33.5848 105.408 32.2716 105.408 30.5961V16.7297H102.996V14.5148H105.408V8.6347L108.924 7.38281V14.5156H112.88V16.7305H108.924V30.5021C108.924 31.8231 109.278 32.7593 109.987 33.3062C110.596 33.7567 111.563 34.0147 112.88 34.0803V35.9139L112.878 35.9112Z" fill="#646464"/>
<path d="M134.178 35.6227H130.657V22.0329C130.657 20.6502 130.334 19.46 129.69 18.4661C128.947 17.3415 127.915 16.7792 126.59 16.7792C124.976 16.7792 122.957 17.6303 120.536 19.3327V35.6215H117.015V3.13878L120.536 2.02954V16.8246C122.785 15.1874 125.242 14.3671 127.913 14.3671C129.778 14.3671 131.287 14.995 132.442 16.2469C133.601 17.4988 134.179 19.0585 134.179 20.9217V35.618L134.178 35.6227Z" fill="#646464"/>
<path d="M152.909 24.6609C152.909 22.4499 152.489 20.6262 151.653 19.1799C150.659 17.4198 149.115 16.4916 147.025 16.3952C143.166 16.6185 141.24 19.3842 141.24 24.6858C141.24 27.116 141.641 29.1472 142.45 30.7753C143.482 32.8515 145.031 33.8758 147.097 33.8414C150.972 33.8106 152.91 30.7524 152.91 24.6617L152.909 24.6609ZM156.764 24.684C156.764 27.8307 155.959 30.4495 154.353 32.5399C152.585 34.8817 150.144 36.0565 147.027 36.0565C143.937 36.0565 141.53 34.8817 139.791 32.5399C138.215 30.4483 137.43 27.8295 137.43 24.684C137.43 21.7258 138.281 19.2386 139.983 17.2114C141.782 15.0621 144.149 13.9836 147.069 13.9836C149.992 13.9836 152.372 15.0621 154.206 17.2114C155.908 19.2374 156.759 21.7242 156.759 24.684H156.764Z" fill="#646464"/>
<path d="M176.935 35.6228H173.414V21.2624C173.414 19.6868 172.94 18.4583 171.993 17.5723C171.045 16.6903 169.782 16.2627 168.207 16.2975C166.535 16.3283 164.944 16.8752 163.433 17.9347V35.6224H159.913V17.5C161.939 16.0248 163.803 15.0618 165.504 14.6113C167.11 14.1917 168.528 13.9834 169.748 13.9834C170.584 13.9834 171.37 14.0643 172.109 14.2261C173.492 14.5458 174.617 15.1389 175.483 16.0095C176.45 16.9725 176.932 18.128 176.932 19.4798V35.6224L176.935 35.6228Z" fill="#646464"/>
<path d="M24.5227 3.26951C22.7113 3.27793 20.9816 3.4324 19.4606 3.70183C14.9755 4.49414 14.1614 6.15186 14.1614 9.21046V13.2491H24.7559V14.595H14.1614H10.186C7.10691 14.595 4.40871 16.446 3.567 19.9653C2.5941 24 2.55102 26.5212 3.567 30.7336C4.32019 33.8705 6.11899 36.104 9.19813 36.104H12.8412V31.2632C12.8412 27.7659 15.867 24.6797 19.4602 24.6797H30.0428C32.9888 24.6797 35.342 22.2541 35.342 19.2975V9.20888C35.342 6.33759 32.9196 4.18235 30.0428 3.70024C28.2227 3.39727 26.3342 3.25963 24.5223 3.26793L24.5227 3.26951ZM18.7928 6.51739C19.8874 6.51739 20.7809 7.42588 20.7809 8.54262C20.7809 9.65541 19.887 10.5556 18.7928 10.5556C17.6946 10.5556 16.8047 9.65581 16.8047 8.54262C16.8047 7.42588 17.6946 6.51739 18.7928 6.51739Z" fill="url(#paint0_linear_155_24)"/>
<path d="M36.6623 14.592V19.2985C36.6623 22.9463 33.5697 26.0163 30.0432 26.0163H19.4606C16.5617 26.0163 14.1614 28.4972 14.1614 31.3985V41.4871C14.1614 44.3584 16.6585 46.0474 19.4606 46.8693C22.8144 47.8556 26.0323 48.0339 30.0432 46.8693C32.7106 46.0971 35.3424 44.5426 35.3424 41.4871V37.4485H24.7598V36.1026H35.3424H40.6416C43.7207 36.1026 44.8699 33.9548 45.9408 30.7322C47.0468 27.4132 46.9998 24.2199 45.9408 19.9639C45.1797 16.8986 43.7263 14.5936 40.6416 14.5936H36.6662L36.6623 14.592ZM30.711 40.1436C31.8092 40.1436 32.6991 41.0433 32.6991 42.1565C32.6991 43.2733 31.8092 44.1818 30.711 44.1818C29.6164 44.1818 28.7229 43.2733 28.7229 42.1565C28.7229 41.0437 29.6168 40.1436 30.711 40.1436Z" fill="url(#paint1_linear_155_24)"/>
<path d="M183.811 11.3753H184.428V7.50428H185.89V7.04272H182.349V7.50428H183.811V11.3753ZM186.437 11.3753H186.964V7.83978L188.109 11.3749H188.696L189.889 7.85163V11.3753H190.464V7.04431H189.703L188.4 10.7561L187.288 7.04431H186.437V11.3753Z" fill="#646464"/>
<path opacity="0.4438" d="M39.0878 53.7359C39.0878 54.4662 37.5917 55.1665 34.9287 55.6828C32.2657 56.1991 28.6539 56.4892 24.8878 56.4892C21.1217 56.4892 17.5099 56.1991 14.8469 55.6828C12.1838 55.1665 10.6878 54.4662 10.6878 53.7359C10.6878 53.0057 12.1838 52.3054 14.8469 51.7891C17.5099 51.2727 21.1217 50.9827 24.8878 50.9827C28.6539 50.9827 32.2657 51.2727 34.9287 51.7891C37.5917 52.3054 39.0878 53.0057 39.0878 53.7359Z" fill="url(#paint2_radial_155_24)"/>
<defs>
<linearGradient id="paint0_linear_155_24" x1="2.82038" y1="3.26864" x2="27.2605" y2="24.0874" gradientUnits="userSpaceOnUse">
<stop stop-color="#5A9FD4"/>
<stop offset="1" stop-color="#306998"/>
</linearGradient>
<linearGradient id="paint1_linear_155_24" x1="30.4611" y1="41.8302" x2="21.6794" y2="29.5433" gradientUnits="userSpaceOnUse">
<stop stop-color="#FFD43B"/>
<stop offset="1" stop-color="#FFE873"/>
</linearGradient>
<radialGradient id="paint2_radial_155_24" cx="0" cy="0" r="1" gradientUnits="userSpaceOnUse" gradientTransform="translate(24.9067 53.7249) rotate(-90) scale(2.75342 12.1057)">
<stop stop-color="#B8B8B8" stop-opacity="0.498"/>
<stop offset="1" stop-color="#7F7F7F" stop-opacity="0"/>
</radialGradient>
</defs>
</svg>
