<svg width="123" height="117" viewBox="0 0 123 117" fill="none" xmlns="http://www.w3.org/2000/svg">
<path d="M82.9854 113.872V99.7376L95.7644 101.892C96.8843 102.081 98.0313 102.035 99.1327 101.758C100.234 101.481 101.266 100.979 102.164 100.283C103.061 99.5863 103.804 98.7116 104.346 97.7136C104.888 96.7155 105.218 95.6159 105.313 94.4842L106.884 75.8359C111.949 74.6998 115.59 72.8684 117.952 71.3408C120.071 69.972 120.318 67.2071 118.905 65.1156L107.555 48.3151C106.208 23.061 85.3041 3.00012 59.7161 3.00012V113.872" stroke="#353535" stroke-width="6" stroke-linecap="round" stroke-linejoin="round"/>
<path d="M3.59589 57.7515C3.59589 59.9296 4.46115 62.0185 6.00133 63.5587C7.54151 65.0989 9.63045 65.9642 11.8086 65.9642C13.9867 65.9642 16.0757 65.0989 17.6159 63.5587C19.156 62.0185 20.0213 59.9296 20.0213 57.7515C20.0213 55.5733 19.156 53.4844 17.6159 51.9442C16.0757 50.404 13.9867 49.5388 11.8086 49.5388C9.63045 49.5388 7.54151 50.404 6.00133 51.9442C4.46115 53.4844 3.59589 55.5733 3.59589 57.7515ZM17.2837 16.6879C17.2837 17.7664 17.4962 18.8344 17.9089 19.8308C18.3216 20.8272 18.9266 21.7326 19.6892 22.4952C20.4518 23.2578 21.3572 23.8628 22.3536 24.2755C23.35 24.6882 24.4179 24.9006 25.4964 24.9006C26.5749 24.9006 27.6429 24.6882 28.6393 24.2755C29.6357 23.8628 30.5411 23.2578 31.3037 22.4952C32.0663 21.7326 32.6713 20.8272 33.084 19.8308C33.4967 18.8344 33.7091 17.7664 33.7091 16.6879C33.7091 15.6094 33.4967 14.5415 33.084 13.5451C32.6713 12.5486 32.0663 11.6433 31.3037 10.8807C30.5411 10.118 29.6357 9.5131 28.6393 9.10037C27.6429 8.68765 26.5749 8.47522 25.4964 8.47522C24.4179 8.47522 23.35 8.68765 22.3536 9.10037C21.3572 9.5131 20.4518 10.118 19.6892 10.8807C18.9266 11.6433 18.3216 12.5486 17.9089 13.5451C17.4962 14.5415 17.2837 15.6094 17.2837 16.6879ZM14.5462 101.553C14.5462 103.731 15.4114 105.82 16.9516 107.36C18.4918 108.9 20.5807 109.765 22.7589 109.765C24.937 109.765 27.026 108.9 28.5661 107.36C30.1063 105.82 30.9716 103.731 30.9716 101.553C30.9716 99.3744 30.1063 97.2855 28.5661 95.7453C27.026 94.2051 24.937 93.3399 22.7589 93.3399C20.5807 93.3399 18.4918 94.2051 16.9516 95.7453C15.4114 97.2855 14.5462 99.3744 14.5462 101.553Z" stroke="#353535" stroke-width="6"/>
<path d="M20.0213 57.7515H59.7161M59.7161 35.8509H44.6594L32.3404 23.5319M59.7161 82.3896H41.9219L29.6028 94.7087" stroke="#353535" stroke-width="6" stroke-linecap="round" stroke-linejoin="round"/>
</svg>
