<svg width="106" height="111" viewBox="0 0 106 111" fill="none" xmlns="http://www.w3.org/2000/svg">
<path d="M59.0344 21.3456C53.1258 21.3456 48.3052 26.1661 48.3052 32.0747C48.3052 37.619 57.0995 48.1586 58.1166 49.3466C58.3579 49.6115 58.6749 49.7818 59.0391 49.7818C59.4034 49.7818 59.7392 49.6352 59.9616 49.3466C60.955 48.1592 69.773 37.6004 69.773 32.0747C69.7682 26.1661 64.9476 21.3456 59.0344 21.3456ZM59.0344 46.6588C56.0777 42.9783 50.7273 35.6128 50.7273 32.0791C50.7273 27.4999 54.455 23.772 59.0344 23.772C63.6137 23.772 67.3414 27.4997 67.3414 32.0791C67.3461 35.6129 61.991 42.9737 59.0344 46.6588Z" fill="#353535"/>
<path d="M59.0344 27.5243C56.3947 27.5243 54.2376 29.6814 54.2376 32.3211C54.2376 34.9608 56.3947 37.1179 59.0344 37.1179C61.6741 37.1179 63.8313 34.9608 63.8313 32.3211C63.8313 29.6767 61.7025 27.5243 59.0344 27.5243ZM59.0344 34.6912C57.7288 34.6912 56.6597 33.6268 56.6597 32.3165C56.6597 31.0109 57.7241 29.9418 59.0344 29.9418C60.3401 29.9418 61.4092 31.0062 61.4092 32.3165C61.4092 33.6268 60.3684 34.6912 59.0344 34.6912Z" fill="#353535"/>
<path d="M7.97675 42.3693C8.21802 42.8282 8.53497 43.2634 8.92288 43.6277C9.28714 43.9683 9.6987 44.2332 10.1813 44.4745C10.7868 44.7394 11.4633 44.8861 12.1209 44.8861C12.2439 44.8861 12.3621 44.8388 12.4851 44.8151L14.2307 49.3943C14.5477 50.2174 15.2478 50.7994 16.0947 50.9696C16.265 50.9933 16.4353 51.0169 16.5772 51.0169C17.2537 51.0169 17.9349 50.7284 18.4174 50.2175L20.2103 48.3063C20.7922 47.7008 21.0334 46.854 20.8631 46.0309L19.4109 39.6114L29.2459 30.1643L35.6654 48.2585C35.9303 49.0343 36.5358 49.6635 37.2879 49.9805C37.3116 49.9805 37.5292 50.0514 37.5528 50.0751C37.7231 50.1224 37.8934 50.1697 38.182 50.1981H38.499C38.7402 50.1981 38.9578 50.1508 39.1754 50.1035C39.3457 50.0561 39.4924 50.0088 39.6343 49.9332C39.658 49.9332 40.0222 49.7155 40.0222 49.7155C40.1925 49.6209 40.3392 49.4743 40.4811 49.304L43.4851 46.1297C44.0906 45.4769 44.3555 44.6017 44.2373 43.7312L42.6147 32.8082L40.6279 19.4395L46.6121 13.6729C46.6358 13.6493 46.9007 13.356 46.9291 13.3087C46.9764 13.2613 47.0521 13.162 47.0994 13.091C47.1467 13.0437 47.1703 12.9964 47.2224 12.9444C47.246 12.9207 47.2697 12.8971 47.2697 12.8734C47.317 12.8261 47.3406 12.8025 47.3643 12.7504C47.3879 12.7268 47.4116 12.7031 47.4352 12.6558C47.4589 12.6085 47.5062 12.5849 47.5298 12.5328C47.5772 12.4855 47.6008 12.4382 47.6528 12.3862C47.7001 12.3389 47.7758 12.2395 47.7995 12.1686C47.8704 12.0976 47.8704 12.1213 47.9225 11.9983C47.9461 11.951 47.9934 11.9273 48.0171 11.8753C48.0644 11.828 48.0881 11.7807 48.1117 11.7286C48.1354 11.705 48.159 11.6813 48.1827 11.6056C48.2063 11.582 48.2063 11.5583 48.23 11.5347C48.3009 11.4637 48.353 11.3644 48.3766 11.3171C48.4003 11.2934 48.4003 11.2698 48.4239 11.2461C48.4712 11.1988 48.4949 11.1515 48.5185 11.0995C48.5422 11.0758 48.5658 11.0049 48.5895 10.9528C48.6368 10.9055 48.6605 10.8298 48.6841 10.7825L48.7078 10.7589C48.7551 10.7116 48.7787 10.6359 48.8024 10.5886C48.826 10.5413 48.8497 10.494 48.8733 10.4419C48.8733 10.4183 48.897 10.4183 48.897 10.3946C48.9443 10.3237 48.9916 10.2243 49.0436 10.1297C49.0673 10.106 49.0673 10.0824 49.0909 10.0351C49.1146 9.98778 49.1146 9.96413 49.1382 9.94047C49.1619 9.89317 49.1856 9.84586 49.2092 9.79383C49.2565 9.72287 49.2802 9.62353 49.3038 9.55256C49.3275 9.50526 49.3511 9.42957 49.3511 9.42957C49.3748 9.38227 49.3984 9.28292 49.4457 9.18831C49.493 9.11735 49.493 9.06531 49.493 9.09369V9.07004C49.5167 8.99908 49.5403 8.9234 49.564 8.85243C49.564 8.82878 49.5877 8.78147 49.5877 8.75782C49.6113 8.71051 49.6113 8.63482 49.635 8.56385C49.6586 8.51655 49.6586 8.4929 49.6823 8.44086V8.39355C49.7059 8.34625 49.7296 8.29894 49.7296 8.27056C49.7532 8.22326 49.7532 8.17595 49.7532 8.14757C49.7532 8.12391 49.7532 8.10026 49.7769 8.07661C49.7769 8.0293 49.8005 7.98199 49.8005 7.92996C49.8242 7.88266 49.8242 7.83535 49.8242 7.75966V7.71236C49.8478 7.6414 49.8478 7.54206 49.8715 7.44744C49.8951 7.35283 49.9188 7.25348 49.9188 7.15887C49.9188 7.11157 49.9188 7.06426 49.9425 7.01223C49.9661 6.91762 49.9661 6.81827 49.9425 6.81827V6.79462C49.9661 6.7 49.9898 6.577 49.9661 6.47766L49.9425 5.77753C49.9425 5.68292 49.9425 5.58357 49.9188 5.48897V5.44166V5.34705C49.9188 5.27609 49.8951 5.22405 49.8951 5.15309C49.8951 5.08213 49.8715 5.03009 49.8715 4.95913C49.8715 4.88816 49.8478 4.83613 49.8242 4.76517C49.8242 4.74151 49.8242 4.71786 49.8005 4.71786C49.7769 4.62325 49.7532 4.54756 49.7296 4.47659C49.7296 4.42929 49.7059 4.38198 49.6823 4.32995V4.30629C49.6586 4.21168 49.635 4.11233 49.5877 4.01773C49.564 3.92312 49.5403 3.82377 49.493 3.75281C49.4694 3.6582 49.4221 3.58252 49.37 3.51155C49.3464 3.41694 49.2991 3.34125 49.2471 3.27028C49.2234 3.22298 49.1997 3.19932 49.1997 3.17567C49.1761 3.05268 49.1288 2.95806 48.9821 2.83507C48.9348 2.71207 48.8591 2.61745 48.7645 2.49446C48.7693 2.28631 48.7172 2.21061 48.6463 2.13966C48.5753 2.01667 48.4996 1.9457 48.4523 1.92205C48.405 1.85109 48.3293 1.7754 48.2583 1.72809C48.211 1.65713 48.1353 1.58144 48.088 1.53413C47.071 0.61165 45.7605 0.081843 44.3083 0.00615281C43.7737 -0.0175001 43.2202 0.0298057 42.662 0.100766C42.0564 0.195378 41.4273 0.365681 40.8218 0.635332C39.2702 1.24085 37.7706 2.30524 36.3182 3.83321C36.3182 3.83321 36.3182 3.85687 36.2945 3.85687C36.2472 3.90417 36.1999 3.95148 36.1479 4.00351L30.8212 10.3757L17.4283 9.33491H17.4046L6.42954 8.43609C5.53071 8.36513 4.66033 8.70574 4.0548 9.35856L1.09816 12.5281C0.956241 12.6984 0.833247 12.8687 0.686602 13.1336C0.639296 13.1857 0.54468 13.4033 0.516305 13.4506C0.468998 13.5972 0.421693 13.7391 0.39804 13.9095C0.350733 14.1271 0.32708 14.3731 0.350733 14.4913C0.350733 14.5623 0.374386 14.8556 0.374386 14.9266C0.398039 15.0968 0.445345 15.2672 0.49738 15.4091C0.49265 15.4611 0.591993 15.726 0.639302 15.7781C1.00356 16.5302 1.65639 17.0601 2.45587 17.2777L20.9388 22.3869L12.0972 32.7281L5.67773 31.8056C4.85459 31.6826 4.00782 31.9759 3.47326 32.5814L1.68032 34.521C1.09845 35.1739 0.880833 36.049 1.09844 36.8958C1.31606 37.7425 1.94523 38.3954 2.79197 38.6414L7.5131 40.0936C7.44687 40.8931 7.61723 41.6692 7.97675 42.3693ZM47.8697 12.1926C47.8697 12.2162 47.8461 12.2162 47.8461 12.2162C47.8461 12.2162 47.8461 12.1926 47.8697 12.1926ZM40.5799 3.47401C40.9678 3.2564 41.3557 3.0388 41.7436 2.89214C42.2025 2.69818 42.6141 2.57519 43.0492 2.50423C43.4372 2.43328 43.8251 2.43327 44.213 2.43327C45.0834 2.48058 45.8829 2.79753 46.4884 3.35575C46.5357 3.40306 46.583 3.45036 46.6351 3.5024C46.6824 3.57336 46.7581 3.64904 46.7817 3.67269C46.8054 3.69635 46.829 3.72 46.8527 3.76731C46.8763 3.86192 46.9236 3.9376 47.0466 4.03222C47.0703 4.07953 47.0939 4.12683 47.1412 4.17887C47.1412 4.20252 47.1649 4.20252 47.1649 4.22617C47.1649 4.24983 47.1885 4.27348 47.2122 4.32079C47.2358 4.4154 47.2832 4.49108 47.3352 4.5857C47.3352 4.60935 47.3352 4.60935 47.3588 4.63301C47.3825 4.68031 47.3825 4.72762 47.4062 4.77965C47.4062 4.80331 47.4298 4.82696 47.4298 4.85061C47.4298 4.87427 47.4535 4.89792 47.4535 4.94523C47.4535 5.01618 47.4771 5.09187 47.5008 5.16284C47.5008 5.2338 47.5244 5.28583 47.5481 5.3568C47.5481 5.4041 47.5481 5.42776 47.5717 5.47979V5.55075V5.62171C47.5717 5.64536 47.5717 5.66902 47.5954 5.7447C47.5954 5.79201 47.5954 5.83932 47.619 5.89135L47.6427 6.35023V6.37388C47.6427 6.44484 47.619 6.61514 47.619 6.71449C47.619 6.73814 47.619 6.76179 47.5954 6.8091C47.5954 6.8564 47.5717 6.90371 47.5717 6.93209C47.5481 7.00305 47.5481 7.10239 47.5481 7.17336V7.19701C47.5481 7.24432 47.5244 7.29162 47.5244 7.32C47.5008 7.36731 47.5008 7.443 47.5008 7.4903C47.5008 7.51395 47.5008 7.53761 47.4771 7.56126C47.4535 7.63222 47.4298 7.7079 47.4062 7.80252C47.3825 7.87348 47.3588 7.94917 47.3352 8.02013C47.3352 8.04379 47.3352 8.06744 47.3115 8.09109C47.3115 8.11475 47.2879 8.1384 47.2879 8.18571C47.2879 8.20936 47.2642 8.23301 47.2642 8.25667C47.2406 8.30397 47.2169 8.35128 47.2169 8.40331C47.1933 8.47427 47.1696 8.54996 47.146 8.64458C47.146 8.59727 47.1696 8.57362 47.1696 8.57362V8.59727C47.146 8.64458 47.1223 8.69188 47.1223 8.74391C47.1223 8.76757 47.0987 8.79122 47.0987 8.79122C47.0987 8.81487 47.075 8.83853 47.075 8.86218C47.0277 8.95679 46.9804 9.05614 46.9284 9.17913V9.20279C46.9047 9.22644 46.9047 9.25009 46.8811 9.27375C46.8338 9.34471 46.7864 9.39674 46.7581 9.49136C46.7344 9.51501 46.7344 9.53867 46.7108 9.56232C46.2992 8.11003 45.4761 6.75234 44.336 5.66421C43.2196 4.62347 41.8666 3.91861 40.4616 3.58267C40.4806 3.52117 40.5326 3.49767 40.5799 3.47401ZM3.42507 36.1964L5.3126 34.2096L12.4086 35.2266C12.8202 35.274 13.2317 35.132 13.4966 34.8151L24.0081 22.5109C24.2731 22.1939 24.3724 21.7587 24.2494 21.3708C24.1264 20.9829 23.8142 20.6707 23.4026 20.5477L3.08494 14.9513C2.91464 14.904 2.84367 14.8047 2.79637 14.71C2.79637 14.71 2.77272 14.4215 2.74906 14.4215L1.56167 14.1802L2.8673 14.2039L5.82394 11.006C5.91855 10.883 6.0652 10.8357 6.21185 10.8593L17.1822 11.7298H17.2059L31.2564 12.8178C31.6679 12.8415 32.0322 12.6948 32.2735 12.3826L37.7941 5.81645C39.6107 5.59884 41.3327 6.13341 42.6619 7.36804C44.0196 8.65005 44.6961 10.4666 44.5258 12.3068L38.5227 18.1255C38.2341 18.3904 38.1111 18.7783 38.1584 19.1662L40.2162 33.1405L41.8388 44.0635C41.8624 44.2101 41.8151 44.352 41.7442 44.4277L38.7402 47.602L38.5226 47.7486L38.8632 48.9124L38.234 47.725C38.1631 47.7013 38.0637 47.6304 37.9927 47.4601L30.9441 27.6014C30.7975 27.2135 30.4852 26.9249 30.0737 26.8256C29.6621 26.7309 29.2505 26.8492 28.9572 27.1425L17.282 38.3588C16.9651 38.6474 16.8468 39.0873 16.9414 39.4989L18.493 46.6421L16.5062 48.5297L14.4199 43.0753C14.3726 42.9523 14.2969 42.8576 14.226 42.7583C14.2023 42.7346 14.2023 42.6873 14.1787 42.6637C14.0841 42.5407 13.9374 42.4697 13.8144 42.3988C13.7198 42.3515 13.5968 42.3278 13.4738 42.3042C13.4265 42.3042 13.4028 42.2805 13.3792 42.2805C13.3082 42.2805 13.2325 42.3042 13.1616 42.3042C13.067 42.3042 12.9913 42.3042 12.8967 42.3515C12.3384 42.5454 11.7329 42.5218 11.2268 42.2805C10.9855 42.1575 10.7679 42.0392 10.5976 41.8689C10.4036 41.6986 10.257 41.481 10.1387 41.2634C9.87379 40.7525 9.82175 40.147 9.96839 39.5935C9.99205 39.5226 9.96839 39.4469 9.99205 39.3759C9.99205 39.3049 10.0157 39.2056 10.0157 39.1346C10.0157 39.0637 9.96839 38.988 9.94474 38.8934C9.92109 38.8224 9.92109 38.7467 9.87378 38.6758C9.85013 38.6048 9.77917 38.5528 9.72713 38.5055C9.67983 38.4345 9.63252 38.3825 9.58049 38.3115C9.5048 38.2784 9.43384 38.2547 9.38181 38.2311C9.31085 38.1838 9.23516 38.1365 9.14054 38.1081L4.29637 36.6321L3.42507 36.1964Z" fill="#353535"/>
<path d="M88.4882 23.4045C79.5047 15.703 68.024 11.4644 56.1776 11.4644C54.7725 11.4644 53.2966 11.5353 51.6977 11.6583C51.0449 11.7056 50.534 12.2875 50.5813 12.9639C50.6286 13.6168 51.2104 14.104 51.8869 14.0804C53.4385 13.9574 54.8199 13.8864 56.1729 13.8864C67.1196 13.8864 77.6834 17.7136 86.1087 24.6155C85.3565 25.8739 84.9686 26.6261 84.9213 27.1322C84.6043 27.3735 84.0508 27.7377 83.6157 28.0263C82.1396 28.9961 80.2711 30.1834 79.2303 31.6594C78.8661 32.194 77.9957 32.3359 77.0969 32.4826C76.0325 32.6529 74.8214 32.8468 74.2633 33.9348C73.705 35.0229 74.216 36.3333 74.6985 37.3267C76.2265 40.4017 75.6919 41.2011 74.7931 42.5588C74.5755 42.8994 74.3579 43.2353 74.1403 43.6232C73.8754 44.1057 73.6057 44.4936 73.3644 44.8579C72.6123 45.9459 71.4533 47.6205 73.5111 49.3851C74.7931 50.5015 75.0627 52.3654 74.9871 52.777C74.5519 54.4705 74.0646 57.2806 75.5453 58.0327C76.3921 59.0261 78.8142 64.4048 78.8142 66.775C78.8142 69.268 78.8142 72.7071 81.6242 73.3126C82.4473 73.5066 83.2705 73.289 84.0699 73.095C85.6452 72.7071 86.5865 72.5368 87.58 73.9418C88.4267 75.1292 87.1211 76.8228 85.4465 78.7624C84.3584 80.0208 83.5826 80.9432 83.6535 81.9603C83.7481 83.0767 84.1644 83.9708 84.8882 84.5763C86.3405 85.7874 88.5687 85.5934 90.7494 85.3995C92.0078 85.2765 93.3181 85.1582 94.2122 85.3758C94.9124 85.5461 95.6409 85.7874 96.3693 86.0287C87.7975 99.8842 72.536 108.457 56.1869 108.457C32.4008 108.457 12.4658 90.8971 9.36799 67.4525C10.2148 67.1355 10.896 66.7523 11.1609 66.0474C11.2839 65.7305 11.4259 65.4655 11.5962 65.2006C11.9273 64.633 12.3389 63.9754 12.3389 62.9583C12.3389 62.7643 12.3625 62.6933 12.7741 62.2581C13.0627 61.9412 13.3796 61.5817 13.6209 61.1701C13.9094 60.9525 15.1488 60.9052 15.8963 60.8531C16.8897 60.8058 17.9069 60.7585 18.7299 60.4889C19.87 60.101 21.5872 60.03 22.2921 60.0063L26.1192 62.1635L28.0824 63.9564C28.2054 64.1267 31.0155 67.9065 31.8101 68.8242C31.9804 69.3067 31.2992 71.1517 30.987 71.6815C30.7221 71.9701 29.0238 73.375 27.5951 74.5151C27.3539 74.7091 27.1836 74.9977 27.1362 75.3146C26.9186 77.0081 26.4361 81.0055 26.4361 81.5638C26.4361 82.1221 26.5828 88.6598 26.5828 88.6598C26.5828 88.8301 26.6301 89.0241 26.7057 89.1707C28.9812 93.7263 30.3862 96.2667 30.8214 96.6782C31.9094 97.8183 42.956 99.7295 44.9663 99.8289C46.272 99.8998 47.8237 100.387 49.4462 100.893C51.3338 101.499 53.297 102.104 55.2602 102.199H55.6245C59.7165 102.199 61.1451 99.6538 61.4384 99.0767C61.85 98.3009 62.9381 96.2667 61.8973 94.6678C61.4858 93.9913 60.8329 93.6744 60.2748 93.3858C59.4753 92.9742 58.6285 92.5627 57.9757 90.8407C57.2756 88.9767 57.1053 87.7185 56.8593 86.1195C56.689 84.9794 56.495 83.6974 56.0835 81.9755C55.1137 77.8078 56.4241 74.1037 57.2472 72.7224C57.5642 72.1878 57.8764 71.7289 58.1933 71.2937C58.9928 70.1063 59.7449 68.9946 59.9863 67.4666C60.2749 65.6264 60.0336 64.1977 59.7923 62.6934L59.7214 62.2108C59.4564 60.7348 57.8102 59.9354 56.0409 59.1359C54.8298 58.5776 53.4721 57.9485 52.9897 57.2483C52.1429 56.0373 51.1495 55.6967 50.473 55.6494C49.4086 55.5784 48.5334 56.0373 48.0036 56.4489C47.2041 56.0846 45.5341 54.9209 44.2001 53.9037C44.1055 53.8328 44.0298 53.7808 43.9116 53.7334C42.3836 53.1043 40.5434 52.2811 40.0135 51.9405C39.8195 51.6519 39.4789 51.458 39.091 51.4296C38.4145 51.4059 37.8563 51.8884 37.809 52.5697C37.7617 53.3691 37.738 53.8281 42.8472 55.9142C48.0083 59.8643 48.7084 59.1121 49.2429 58.5539C49.4605 58.3363 49.8958 58.0193 50.26 58.0714C50.5013 58.095 50.7425 58.289 51.0122 58.6532C51.8826 59.8643 53.4816 60.6165 55.0332 61.3403C55.8327 61.7046 57.1903 62.3337 57.3607 62.6223L57.4317 63.1048C57.6729 64.5335 57.8432 65.65 57.6256 67.1259C57.479 68.143 56.9492 68.8951 56.2206 69.9595C55.9036 70.4184 55.5678 70.9293 55.2035 71.5111C53.7512 73.9095 52.7578 78.2664 53.7512 82.5571C54.1391 84.2034 54.3094 85.4381 54.4797 86.5072C54.721 88.1771 54.9386 89.6057 55.7381 91.7156C56.7316 94.3317 58.2312 95.0838 59.2246 95.59C59.4895 95.713 59.8065 95.8786 59.8774 96.0015C59.972 96.1719 60.0477 96.6307 59.2483 98.135C59.1536 98.329 58.3258 99.9516 55.3975 99.8286C53.7749 99.7576 51.9584 99.1994 50.2364 98.6412C48.4434 98.083 46.7735 97.5247 45.151 97.4538C42.341 97.3071 34.0104 95.5142 32.5816 94.9371C32.0707 94.2086 30.4764 91.1573 29.0951 88.3474C29.0714 87.1127 28.9484 82.0509 28.9484 81.592C28.9484 81.2278 29.2654 78.6118 29.5776 76.1187C32.6998 73.6257 32.9695 73.2378 33.0877 73.0675C33.1114 73.0202 35.3631 69.1458 33.7878 67.3528C32.9884 66.4303 30.1311 62.5796 29.9607 62.3856L27.6474 60.271C27.5764 60.2001 27.5007 60.148 27.4061 60.1007L23.1674 57.726C22.9971 57.6314 22.7795 57.5793 22.5856 57.5793C22.4626 57.5793 19.7992 57.5793 17.959 58.2085C17.4481 58.3788 16.6013 58.4261 15.7782 58.4498C14.1083 58.5207 12.3863 58.6201 11.6341 59.8311C11.4401 60.1717 11.1989 60.3893 11.0049 60.6069C10.5224 61.1178 9.91688 61.7706 9.91688 62.958C9.91688 63.275 9.82227 63.4405 9.55263 63.8805C9.40598 64.1218 9.23567 64.4151 9.0701 64.7746C8.97549 63.6108 8.92345 62.4235 8.92345 61.1651C8.92345 57.021 9.45802 52.929 10.4988 49.0074C10.6691 48.3546 10.2812 47.7018 9.65199 47.5314C8.99917 47.3611 8.34637 47.749 8.17597 48.3782C7.05954 52.5222 6.50607 56.8319 6.50607 61.1656C6.50607 63.1288 6.60068 64.9454 6.82302 66.7383C9.60939 91.905 30.8501 110.87 56.2106 110.87C73.9415 110.87 90.4371 101.328 99.2741 85.9721C103.607 78.4646 105.911 69.8882 105.911 61.1699C105.878 46.6326 99.5346 32.8761 88.4882 23.4045ZM97.6231 83.8852C96.7007 83.5683 95.712 83.2324 94.7658 83.0148C93.4838 82.7499 91.9794 82.8681 90.5508 82.9911C88.9518 83.1378 87.1589 83.2797 86.4588 82.7262C86.3878 82.6553 86.1182 82.4613 86.0472 81.9504C86.1418 81.6855 86.7994 80.9097 87.2583 80.3515C88.9518 78.3646 91.5443 75.3842 89.5337 72.5506C87.5231 69.717 84.9781 70.3698 83.4548 70.7577C82.9439 70.8807 82.3904 71.0226 82.1208 70.9517C81.4679 70.805 81.1983 69.6696 81.1983 66.784C81.1983 64.3619 78.7526 57.6538 76.9596 56.1022C76.9123 55.544 77.0826 54.1911 77.3002 53.3396C77.5415 52.2515 77.1299 49.3659 75.0484 47.5493C74.8072 47.3317 74.7315 47.2087 74.7315 47.2087C74.7551 47.0384 75.0721 46.5559 75.3133 46.2153C75.6019 45.7801 75.9425 45.3212 76.2358 44.763C76.4061 44.4461 76.6001 44.1575 76.794 43.8689C78.0287 41.9814 78.8282 40.2358 76.8413 36.2148C76.4771 35.4626 76.4061 35.1267 76.3588 35.0747C76.5528 34.9801 77.0873 34.8807 77.4469 34.8334C78.6106 34.6395 80.2095 34.3982 81.1746 33.0169C81.9504 31.9288 83.644 30.8124 84.8787 30.0129C86.331 29.0667 87.5184 28.3193 87.3481 27.2502C87.4191 27.0799 87.5894 26.7393 87.93 26.1622C97.765 35.122 103.408 47.7902 103.408 61.1359C103.456 69.1117 101.422 76.9593 97.6231 83.8852Z" fill="#353535"/>
<path d="M65.7714 91.9278C65.866 92.4624 66.0883 93.0916 67.271 94.5912C68.4821 96.1191 70.2513 96.6253 71.8266 97.0606C72.7491 97.3255 73.6195 97.5715 74.3433 97.9831C74.8542 98.3 75.4077 98.4183 75.9658 98.4183C77.735 98.4183 79.6935 97.2309 81.2452 96.3131C81.6805 96.0482 82.2623 95.7076 82.5036 95.613C82.9625 95.613 83.3977 95.3717 83.691 94.9838C84.6135 93.7254 84.1499 90.0166 83.5444 88.6636L83.1801 87.9115C82.5036 86.4592 81.3399 84.0607 81.1695 82.6084C81.0466 81.544 79.7882 76.6242 77.754 76.6242C77.2952 76.5769 74.4095 75.8957 71.9165 75.2665C71.5995 75.1719 71.2636 75.2428 70.9703 75.4131C70.6818 75.5834 70.4878 75.872 70.4358 76.2126C70.1945 77.4237 69.6599 79.6281 69.1774 80.4276C68.9834 80.7683 68.4015 81.1798 67.8954 81.5157C66.9256 82.1922 65.8138 82.9444 65.8138 84.2264C65.8138 84.5433 65.7665 84.9785 65.7192 85.461C65.5726 86.8897 65.4022 88.5123 65.9605 89.6287C65.9605 89.676 65.8658 89.87 65.8138 89.9693C65.6482 90.3288 65.2605 91.1047 65.7714 91.9278ZM68.1461 85.7023C68.1934 85.1205 68.2407 84.6143 68.2171 84.3446C68.3117 84.1507 68.9172 83.7391 69.2578 83.4978C69.9863 82.9869 70.8094 82.4335 71.2684 81.6339C71.803 80.7115 72.2618 79.0652 72.5268 77.9062C74.4143 78.3651 76.3775 78.8523 77.3 78.9706C77.7352 79.5525 78.6056 81.4637 78.7523 82.845C78.9462 84.6852 80.1809 87.2303 80.9804 88.9238L81.321 89.6523C81.7089 90.4755 81.8555 92.4387 81.7325 93.2855C81.2736 93.4558 80.7154 93.768 79.9633 94.2316C78.8753 94.8844 76.3538 96.3887 75.5544 95.9015C74.5609 95.296 73.4966 95.0074 72.4558 94.7141C71.0745 94.3262 69.8871 93.9856 69.1632 93.0915C68.2407 91.9042 68.1698 91.6155 68.1461 91.4453C68.1225 91.3223 68.0988 91.1803 68.0231 91.01C68.2408 90.5512 68.676 89.605 68.1178 88.4934C67.9238 88.0534 68.0704 86.5255 68.1461 85.7023Z" fill="#353535"/>
</svg>
