<svg width="62" height="51" viewBox="0 0 62 51" fill="none" xmlns="http://www.w3.org/2000/svg">
<g filter="url(#filter0_d_333_137)">
<circle cx="31" cy="27.8799" r="17" fill="#FAFAFA"/>
</g>
<path d="M37 24.3491C36.5166 24.5611 36.0014 24.7017 35.4644 24.7699C36.0169 24.4401 36.4386 23.9217 36.6368 23.2969C36.1217 23.604 35.5529 23.8209 34.9468 23.942C34.4577 23.4212 33.7606 23.0986 33.0001 23.0986C31.5246 23.0986 30.3367 24.2963 30.3367 25.7644C30.3367 25.9757 30.3546 26.1788 30.3984 26.3722C28.1828 26.2641 26.2222 25.2022 24.9051 23.5845C24.6752 23.9834 24.5403 24.4401 24.5403 24.9316C24.5403 25.8546 25.0156 26.6728 25.7241 27.1465C25.2959 27.1384 24.8759 27.0141 24.52 26.8183C24.52 26.8264 24.52 26.8369 24.52 26.8475C24.52 28.1426 25.4438 29.2184 26.6552 29.4662C26.4383 29.5255 26.2019 29.5539 25.9565 29.5539C25.7859 29.5539 25.6136 29.5442 25.4519 29.5084C25.7972 30.5639 26.7771 31.3398 27.9423 31.365C27.0355 32.0743 25.8842 32.5017 24.6378 32.5017C24.4193 32.5017 24.2096 32.4919 24 32.4651C25.1806 33.2264 26.5797 33.6611 28.0885 33.6611C32.9928 33.6611 35.674 29.5986 35.674 26.0773C35.674 25.9594 35.6699 25.8457 35.6643 25.7328C36.1932 25.3574 36.6376 24.8886 37 24.3491Z" fill="#1A202C"/>
<defs>
<filter id="filter0_d_333_137" x="0" y="0.879883" width="62" height="62" filterUnits="userSpaceOnUse" color-interpolation-filters="sRGB">
<feFlood flood-opacity="0" result="BackgroundImageFix"/>
<feColorMatrix in="SourceAlpha" type="matrix" values="0 0 0 0 0 0 0 0 0 0 0 0 0 0 0 0 0 0 127 0" result="hardAlpha"/>
<feOffset dy="4"/>
<feGaussianBlur stdDeviation="7"/>
<feColorMatrix type="matrix" values="0 0 0 0 0 0 0 0 0 0 0 0 0 0 0 0 0 0 0.15 0"/>
<feBlend mode="normal" in2="BackgroundImageFix" result="effect1_dropShadow_333_137"/>
<feBlend mode="normal" in="SourceGraphic" in2="effect1_dropShadow_333_137" result="shape"/>
</filter>
</defs>
</svg>
